<svg viewBox="0 0 680 400" width="100%" xmlns="http://www.w3.org/2000/svg" font-family="'Hiragino Kaku Gothic Pro', 'Meiryo', sans-serif">

  <rect width="680" height="400" fill="#fafafa" rx="8"/>

  <text x="340" y="34" text-anchor="middle" font-size="14" font-weight="bold" fill="#333">One-hot表現 vs Word Embedding</text>

  <!-- 中央の仕切り線 -->
  <line x1="340" y1="50" x2="340" y2="390" stroke="#ddd" stroke-width="1.5" stroke-dasharray="6,4"/>

  <!-- ===== 左側：One-hot ===== -->
  <text x="170" y="58" text-anchor="middle" font-size="13" font-weight="bold" fill="#555">One-hot表現</text>

  <text x="40" y="84" font-size="11" fill="#888">語彙：猫・犬・魚・車・飛行機</text>

  <!-- 猫のベクトル -->
  <text x="40" y="110" font-size="12" fill="#1a5fa8" font-weight="bold">「猫」</text>
  <rect x="90"  y="96" width="24" height="22" rx="3" fill="#4a90d9" stroke="#4a90d9"/>
  <text x="102" y="112" text-anchor="middle" font-size="11" fill="#fff" font-weight="bold">1</text>
  <rect x="116" y="96" width="24" height="22" rx="3" fill="#eee" stroke="#ccc"/>
  <text x="128" y="112" text-anchor="middle" font-size="11" fill="#bbb">0</text>
  <rect x="142" y="96" width="24" height="22" rx="3" fill="#eee" stroke="#ccc"/>
  <text x="154" y="112" text-anchor="middle" font-size="11" fill="#bbb">0</text>
  <rect x="168" y="96" width="24" height="22" rx="3" fill="#eee" stroke="#ccc"/>
  <text x="180" y="112" text-anchor="middle" font-size="11" fill="#bbb">0</text>
  <rect x="194" y="96" width="24" height="22" rx="3" fill="#eee" stroke="#ccc"/>
  <text x="206" y="112" text-anchor="middle" font-size="11" fill="#bbb">0</text>
  <text x="224" y="112" font-size="11" fill="#888">…</text>
  <text x="246" y="112" font-size="10" fill="#aaa">[1,0,0,0,0,…]</text>

  <!-- 犬のベクトル -->
  <text x="40" y="140" font-size="12" fill="#1a5fa8" font-weight="bold">「犬」</text>
  <rect x="90"  y="126" width="24" height="22" rx="3" fill="#eee" stroke="#ccc"/>
  <text x="102" y="142" text-anchor="middle" font-size="11" fill="#bbb">0</text>
  <rect x="116" y="126" width="24" height="22" rx="3" fill="#4a90d9" stroke="#4a90d9"/>
  <text x="128" y="142" text-anchor="middle" font-size="11" fill="#fff" font-weight="bold">1</text>
  <rect x="142" y="126" width="24" height="22" rx="3" fill="#eee" stroke="#ccc"/>
  <text x="154" y="142" text-anchor="middle" font-size="11" fill="#bbb">0</text>
  <rect x="168" y="126" width="24" height="22" rx="3" fill="#eee" stroke="#ccc"/>
  <text x="180" y="142" text-anchor="middle" font-size="11" fill="#bbb">0</text>
  <rect x="194" y="126" width="24" height="22" rx="3" fill="#eee" stroke="#ccc"/>
  <text x="206" y="142" text-anchor="middle" font-size="11" fill="#bbb">0</text>
  <text x="224" y="142" font-size="11" fill="#888">…</text>
  <text x="246" y="142" font-size="10" fill="#aaa">[0,1,0,0,0,…]</text>

  <!-- 飛行機のベクトル -->
  <text x="40" y="170" font-size="12" fill="#1a5fa8" font-weight="bold">「飛行機」</text>
  <rect x="90"  y="156" width="24" height="22" rx="3" fill="#eee" stroke="#ccc"/>
  <text x="102" y="172" text-anchor="middle" font-size="11" fill="#bbb">0</text>
  <rect x="116" y="156" width="24" height="22" rx="3" fill="#eee" stroke="#ccc"/>
  <text x="128" y="172" text-anchor="middle" font-size="11" fill="#bbb">0</text>
  <rect x="142" y="156" width="24" height="22" rx="3" fill="#eee" stroke="#ccc"/>
  <text x="154" y="172" text-anchor="middle" font-size="11" fill="#bbb">0</text>
  <rect x="168" y="156" width="24" height="22" rx="3" fill="#eee" stroke="#ccc"/>
  <text x="180" y="172" text-anchor="middle" font-size="11" fill="#bbb">0</text>
  <rect x="194" y="156" width="24" height="22" rx="3" fill="#4a90d9" stroke="#4a90d9"/>
  <text x="206" y="172" text-anchor="middle" font-size="11" fill="#fff" font-weight="bold">1</text>
  <text x="224" y="172" font-size="11" fill="#888">…</text>
  <text x="246" y="172" font-size="10" fill="#aaa">[0,0,0,0,1,…]</text>

  <!-- 問題の説明 -->
  <rect x="30" y="196" width="296" height="56" rx="6" fill="#fff0f0" stroke="#e57373" stroke-width="1.5"/>
  <text x="178" y="216" text-anchor="middle" font-size="11" fill="#c62828">⚠ 「猫」と「犬」の距離</text>
  <text x="178" y="234" text-anchor="middle" font-size="11" fill="#c62828">＝「猫」と「飛行機」の距離</text>
  <text x="178" y="248" text-anchor="middle" font-size="10" fill="#e57373">文脈の違いが数値に反映されない</text>

  <!-- 次元数の問題 -->
  <rect x="30" y="264" width="296" height="36" rx="6" fill="#fff0f0" stroke="#e57373" stroke-width="1.5"/>
  <text x="178" y="283" text-anchor="middle" font-size="11" fill="#c62828">⚠ 語彙10万語 → 10万次元のベクトル</text>
  <text x="178" y="297" text-anchor="middle" font-size="10" fill="#e57373">ほぼすべての要素が 0（無駄）</text>

  <!-- ===== 右側：Word Embedding ===== -->
  <!-- 右側の描画領域: x=350〜670、中心x=510 -->
  <text x="510" y="58" text-anchor="middle" font-size="13" font-weight="bold" fill="#555">Word Embedding</text>

  <!-- 軸（右側領域に収まるよう調整） -->
  <line x1="360" y1="305" x2="660" y2="305" stroke="#bbb" stroke-width="1.5"/>
  <line x1="372" y1="315" x2="372" y2="78" stroke="#bbb" stroke-width="1.5"/>
  <text x="664" y="309" font-size="10" fill="#aaa">→</text>
  <text x="366" y="73" font-size="10" fill="#aaa">↑</text>

  <!-- 単語の配置（全体を左に寄せてx上限650に収める） -->
  <!-- 猫: cx=430 -->
  <circle cx="430" cy="158" r="26" fill="#e8f4fd" stroke="#4a90d9" stroke-width="2"/>
  <text x="430" y="154" text-anchor="middle" font-size="13" font-weight="bold" fill="#1a5fa8">猫</text>
  <text x="430" y="169" text-anchor="middle" font-size="9" fill="#4a90d9">動物</text>

  <!-- 犬: cx=476 -->
  <circle cx="476" cy="182" r="26" fill="#e8f4fd" stroke="#4a90d9" stroke-width="2"/>
  <text x="476" y="178" text-anchor="middle" font-size="13" font-weight="bold" fill="#1a5fa8">犬</text>
  <text x="476" y="193" text-anchor="middle" font-size="9" fill="#4a90d9">動物</text>

  <!-- 魚: cx=425, cy=245（左下にずらす） -->
  <circle cx="425" cy="245" r="26" fill="#e8f4fd" stroke="#4a90d9" stroke-width="2"/>
  <text x="425" y="241" text-anchor="middle" font-size="13" font-weight="bold" fill="#1a5fa8">魚</text>
  <text x="425" y="256" text-anchor="middle" font-size="9" fill="#4a90d9">動物</text>

  <!-- 車: cx=588 (+20) -->
  <circle cx="588" cy="228" r="26" fill="#f0fff0" stroke="#4caf50" stroke-width="2"/>
  <text x="588" y="224" text-anchor="middle" font-size="13" font-weight="bold" fill="#2e7d32">車</text>
  <text x="588" y="239" text-anchor="middle" font-size="9" fill="#4caf50">乗り物</text>

  <!-- 飛行機: cx=608 (+20) -->
  <circle cx="608" cy="162" r="26" fill="#f0fff0" stroke="#4caf50" stroke-width="2"/>
  <text x="608" y="155" text-anchor="middle" font-size="11" font-weight="bold" fill="#2e7d32">飛行</text>
  <text x="608" y="168" text-anchor="middle" font-size="11" font-weight="bold" fill="#2e7d32">機</text>
  <text x="608" y="181" text-anchor="middle" font-size="9" fill="#4caf50">乗り物</text>

  <!-- 動物グループの囲み（魚の移動に合わせて縦を広げる） -->
  <ellipse cx="449" cy="198" rx="62" ry="70" fill="none" stroke="#4a90d9" stroke-width="1.5" stroke-dasharray="6,3"/>
  <text x="380" y="124" font-size="10" fill="#4a90d9">動物グループ</text>
  <text x="380" y="136" font-size="10" fill="#4a90d9">（文脈が似ている）</text>

  <!-- 乗り物グループの囲み: cx=598 (+20) -->
  <ellipse cx="598" cy="196" rx="48" ry="50" fill="none" stroke="#4caf50" stroke-width="1.5" stroke-dasharray="6,3"/>
  <text x="552" y="258" font-size="10" fill="#4caf50">乗り物グループ</text>
  <text x="552" y="270" font-size="10" fill="#4caf50">（文脈が似ている）</text>

  <!-- 2グループ間の距離 -->
  <line x1="511" y1="190" x2="548" y2="190" stroke="#e57373" stroke-width="1.5" stroke-dasharray="4,3"/>
  <text x="530" y="208" text-anchor="middle" font-size="10" fill="#e57373">文脈が異なる</text>

  <!-- ✓の注記 -->
  <rect x="354" y="328" width="310" height="46" rx="6" fill="#f0fff0" stroke="#4caf50" stroke-width="1.5"/>
  <text x="510" y="348" text-anchor="middle" font-size="11" fill="#2e7d32">✓ 同じ文脈で使われやすい単語は空間的に近く配置</text>
  <text x="510" y="364" text-anchor="middle" font-size="11" fill="#2e7d32">✓ 100〜300次元（コンパクト）</text>

</svg>